<svg id="Layer_1" data-name="Layer 1" xmlns="http://www.w3.org/2000/svg" viewBox="0 0 290 290"><defs><style>.cls-1{fill:#e40000;}.cls-2{fill:#fff;}</style></defs><title>logo</title><circle class="cls-1" cx="145" cy="145" r="145"/><polygon class="cls-2" points="84.45 229.51 84.45 220.6 77.09 220.6 77.09 229.51 72.65 229.51 72.65 210.44 77.09 210.44 77.09 219.12 84.45 219.12 84.45 210.44 88.89 210.44 88.89 229.51 84.45 229.51"/><path class="cls-2" d="M104.83,234.9a5.75,5.75,0,0,1-4.47-2,7,7,0,0,1-1.81-5,6,6,0,0,1,1.7-4.53,6.18,6.18,0,0,1,4.58-1.69,5.73,5.73,0,0,1,4.46,2,7.13,7.13,0,0,1,1.8,5,6.07,6.07,0,0,1-1.67,4.53,6.18,6.18,0,0,1-4.59,1.67m-.09-12.63a2.28,2.28,0,0,0-2.15,1.72,11.93,11.93,0,0,0-.56,4.21,12.2,12.2,0,0,0,.61,4.4,2.39,2.39,0,0,0,2.26,1.78,2.28,2.28,0,0,0,2.15-1.72,12.05,12.05,0,0,0,.56-4.23,12.2,12.2,0,0,0-.6-4.37,2.4,2.4,0,0,0-2.27-1.79" transform="translate(-5 -4.89)"/><path class="cls-2" d="M120,234.9a5.16,5.16,0,0,1-3.68-1.11,4.75,4.75,0,0,1-1.13-3.52v-8.1h3.13v7.6a5.35,5.35,0,0,0,.6,2.92,2.43,2.43,0,0,0,2.18,1,2.49,2.49,0,0,0,2.22-1,5.44,5.44,0,0,0,.6-2.92v-7.6h.91v8.1a4.69,4.69,0,0,1-1.17,3.49A5.1,5.1,0,0,1,120,234.9" transform="translate(-5 -4.89)"/><path class="cls-2" d="M128.8,234.4v-.12l5.51-11.41h-5.6v-.7h7.47a2.27,2.27,0,0,1,1.13.19c.05,0,.17.12.17.49a2,2,0,0,1-.07.52,2.92,2.92,0,0,1-.21.56l-4.82,9.8h5.91v.67Z" transform="translate(-5 -4.89)"/><path class="cls-2" d="M161,234.9a11.65,11.65,0,0,1-3.66-.56,9.8,9.8,0,0,1-5.67-5,10.07,10.07,0,0,1-.89-4.27,9.73,9.73,0,0,1,2.9-7.33,10.31,10.31,0,0,1,7.52-2.86,9.5,9.5,0,0,1,4.58,1.05,9.11,9.11,0,0,1,3,2.75l-1.5,1.1a7.62,7.62,0,0,0-2.11-2.52,5.66,5.66,0,0,0-3.44-1.11,5.25,5.25,0,0,0-4.59,2.39,11.2,11.2,0,0,0-1.56,6.36A9.9,9.9,0,0,0,157.4,231a5.82,5.82,0,0,0,4.85,2.45,5.57,5.57,0,0,0,3.5-1.24A9.34,9.34,0,0,0,168,229.4l1.37.89a8.53,8.53,0,0,1-3.14,3.3A10.2,10.2,0,0,1,161,234.9" transform="translate(-5 -4.89)"/><path class="cls-2" d="M181.13,234.4l-2.64-5.5A3.25,3.25,0,0,0,180,228a3.17,3.17,0,0,0,.75-2.23,3,3,0,0,0-.81-2.25,3.18,3.18,0,0,0-2.29-.78h-.33a1,1,0,0,0-.25,0l-.54.08v11.5h-2.88V222.17h5.25a6.39,6.39,0,0,1,3.77.91,2.84,2.84,0,0,1,1.15,2.47,3,3,0,0,1-.51,1.83,2.71,2.71,0,0,1-1.55,1l-.83.23,3.79,5.82Z" transform="translate(-5 -4.89)"/><path class="cls-2" d="M195,234.4l-.75-2.47h-5.43l-.71,2.47h-1l3.25-10.18a5,5,0,0,1,1-2,1.87,1.87,0,0,1,1.35-.46,1.69,1.69,0,0,1,1.21.39,4.6,4.6,0,0,1,.93,1.88l3.37,10.39Zm-6-3.07h5l-2.42-8.78Z" transform="translate(-5 -4.89)"/><path class="cls-2" d="M202.38,234.4V218.05a5,5,0,0,1,.82-3.31,4,4,0,0,1,3-.86h3.23v.77h-1.21a2.76,2.76,0,0,0-2.07.65,3.1,3.1,0,0,0-.59,2.13v4.74H209v.76h-3.46V234.4Z" transform="translate(-5 -4.89)"/><polygon class="cls-2" points="210.13 229.51 210.13 218.33 206.51 218.33 206.51 217.28 216.89 217.28 216.89 218.33 213.27 218.33 213.27 229.51 210.13 229.51"/><rect class="cls-2" x="72.65" y="238.28" width="2.47" height="9.43"/><path class="cls-2" d="M88.52,246.42v3.52l-1.65-2.69a2.58,2.58,0,0,0-.68-.8,1.2,1.2,0,0,0-.71-.23.87.87,0,0,0-.7.26,1.32,1.32,0,0,0-.23.86v5.26h.8v-4.49L87.69,252a3,3,0,0,0,.56.71.73.73,0,0,0,.46.17.54.54,0,0,0,.46-.2,1.5,1.5,0,0,0,.15-.76v-5.46Z" transform="translate(-5 -4.89)"/><polygon class="cls-2" points="93.07 241.54 87.77 241.54 87.77 242.4 89.5 242.4 89.5 247.71 91.35 247.71 91.35 242.4 93.07 242.4 93.07 241.54"/><path class="cls-2" d="M101.53,251.25a1.61,1.61,0,0,0,.27,1.06,1.32,1.32,0,0,0,1,.29h3v-.73h-1.57a.84.84,0,0,1-.62-.17,1,1,0,0,1-.16-.64v-1.19h2v-.72h-2V248a1,1,0,0,1,.16-.65.85.85,0,0,1,.62-.18h1.47v-.73h-2.86a1.32,1.32,0,0,0-1,.29,1.59,1.59,0,0,0-.27,1.06Z" transform="translate(-5 -4.89)"/><path class="cls-2" d="M115.47,252.6l-1.85-2.84.15,0a1.5,1.5,0,0,0,.84-.53,1.65,1.65,0,0,0,.28-1,1.52,1.52,0,0,0-.63-1.32,3.19,3.19,0,0,0-1.89-.47h-2.68v6.18h1.73v-5.49l.1,0h.25a1.3,1.3,0,0,1,1,.33,1.24,1.24,0,0,1,.33.93,1.3,1.3,0,0,1-.31.94,1.48,1.48,0,0,1-.84.41l1.41,2.92Z" transform="translate(-5 -4.89)"/><rect class="cls-2" x="113.87" y="241.54" width="1.85" height="6.18"/><path class="cls-2" d="M119.11,244.36a1,1,0,0,0,1.67-.69.93.93,0,0,0-.29-.69.91.91,0,0,0-.69-.29,1,1,0,0,0-.69,1.67" transform="translate(-5 -4.89)"/><path class="cls-2" d="M129.87,247.21a2.93,2.93,0,0,0-2.25-1,3.17,3.17,0,0,0-2.31.85,3.07,3.07,0,0,0-.87,2.28,3.59,3.59,0,0,0,.91,2.5,3,3,0,0,0,2.27,1,3.13,3.13,0,0,0,2.3-.85,3.06,3.06,0,0,0,.85-2.28,3.59,3.59,0,0,0-.9-2.5m-1.37,4.31a.92.92,0,0,1-.86.71c-.4,0-.7-.25-.9-.74a5.72,5.72,0,0,1-.28-2,5.47,5.47,0,0,1,.26-1.93.91.91,0,0,1,.85-.7,1,1,0,0,1,.91.73,5.74,5.74,0,0,1,.27,2,5.61,5.61,0,0,1-.25,1.94" transform="translate(-5 -4.89)"/><path class="cls-2" d="M140.26,252.6l-1.85-2.84.16,0a1.57,1.57,0,0,0,.84-.53,1.65,1.65,0,0,0,.27-1,1.51,1.51,0,0,0-.62-1.32,3.23,3.23,0,0,0-1.9-.47h-2.68v6.18h1.74v-5.49l.1,0h.25a1.3,1.3,0,0,1,1,.33,1.24,1.24,0,0,1,.33.93,1.3,1.3,0,0,1-.31.94,1.48,1.48,0,0,1-.84.41l1.4,2.92Z" transform="translate(-5 -4.89)"/><path class="cls-2" d="M156.65,249.75a2.5,2.5,0,0,0-.23-1.09,2.63,2.63,0,0,0-.73-.88,12.62,12.62,0,0,0-1.77-1l-.18-.09a4,4,0,0,1-1.11-.74,1.15,1.15,0,0,1-.31-.79,1.17,1.17,0,0,1,.38-.88,1.31,1.31,0,0,1,.93-.35,1.85,1.85,0,0,1,1.13.37,2.51,2.51,0,0,1,.71,1l.9-.63a3.21,3.21,0,0,0-1.15-1.24,3.41,3.41,0,0,0-1.79-.47,3.29,3.29,0,0,0-2.36.86,2.87,2.87,0,0,0-.9,2.19,2.47,2.47,0,0,0,.21,1.06,3,3,0,0,0,.75.91,11.85,11.85,0,0,0,1.56.92l.39.21a3.45,3.45,0,0,1,.91.68,1.27,1.27,0,0,1,.29.8,1.17,1.17,0,0,1-.39.9,1.39,1.39,0,0,1-1,.36,1.65,1.65,0,0,1-1.06-.4,3,3,0,0,1-.72-1l-1.12.67a3.13,3.13,0,0,0,1.23,1.27,3.89,3.89,0,0,0,1.95.48,3.57,3.57,0,0,0,2.5-.87,2.85,2.85,0,0,0,1-2.23" transform="translate(-5 -4.89)"/><path class="cls-2" d="M165.34,247.21a2.93,2.93,0,0,0-2.25-1,3.17,3.17,0,0,0-2.31.85,3.1,3.1,0,0,0-.86,2.28,3.55,3.55,0,0,0,.91,2.5,3,3,0,0,0,2.26,1,3.17,3.17,0,0,0,2.31-.85,3.1,3.1,0,0,0,.85-2.28,3.59,3.59,0,0,0-.91-2.5M164,251.52a.92.92,0,0,1-.85.71,1,1,0,0,1-.91-.74,5.76,5.76,0,0,1-.27-2,5.51,5.51,0,0,1,.25-1.93.91.91,0,0,1,.86-.7,1,1,0,0,1,.9.73,5.47,5.47,0,0,1,.28,2,5.57,5.57,0,0,1-.26,1.94" transform="translate(-5 -4.89)"/><path class="cls-2" d="M171.66,252.6h1.66v-.73h-.4a1.12,1.12,0,0,1-.85-.25,1.25,1.25,0,0,1-.23-.89v-8.25H170v8.28a2.13,2.13,0,0,0,.37,1.45,1.74,1.74,0,0,0,1.3.39" transform="translate(-5 -4.89)"/><path class="cls-2" d="M181.47,246.42h-.8v3.79a2.33,2.33,0,0,1-.26,1.29,1,1,0,0,1-.9.42,1,1,0,0,1-.88-.42,2.42,2.42,0,0,1-.26-1.29v-3.79h-1.85v4a2.41,2.41,0,0,0,.6,1.81,3.26,3.26,0,0,0,3.74,0,2.41,2.41,0,0,0,.61-1.79Z" transform="translate(-5 -4.89)"/><polygon class="cls-2" points="185.18 241.54 179.88 241.54 179.88 242.4 181.6 242.4 181.6 247.71 183.46 247.71 183.46 242.4 185.18 242.4 185.18 241.54"/><path class="cls-2" d="M193.89,244.36a1,1,0,0,0,.69.29.94.94,0,0,0,.69-.29.91.91,0,0,0,.29-.69,1,1,0,0,0-1-1,1,1,0,0,0-.69.29,1,1,0,0,0,0,1.38" transform="translate(-5 -4.89)"/><rect class="cls-2" x="188.65" y="241.54" width="1.85" height="6.18"/><path class="cls-2" d="M204.65,247.21a2.93,2.93,0,0,0-2.25-1,3.17,3.17,0,0,0-2.31.85,3.1,3.1,0,0,0-.86,2.28,3.55,3.55,0,0,0,.91,2.5,3,3,0,0,0,2.26,1,3.17,3.17,0,0,0,2.31-.85,3.1,3.1,0,0,0,.85-2.28,3.59,3.59,0,0,0-.91-2.5m-1.37,4.31a.92.92,0,0,1-.85.71,1,1,0,0,1-.91-.74,5.76,5.76,0,0,1-.27-2,5.51,5.51,0,0,1,.25-1.93.91.91,0,0,1,.86-.7,1,1,0,0,1,.9.73,5.47,5.47,0,0,1,.28,2,5.57,5.57,0,0,1-.26,1.94" transform="translate(-5 -4.89)"/><path class="cls-2" d="M214,251.88v-5.46h-.8v3.52l-1.65-2.69a2.72,2.72,0,0,0-.67-.8,1.21,1.21,0,0,0-.72-.23.88.88,0,0,0-.7.26,1.32,1.32,0,0,0-.23.86v5.26h.8v-4.49l2.34,3.85a3.28,3.28,0,0,0,.57.71.7.7,0,0,0,.45.17.52.52,0,0,0,.46-.2,1.4,1.4,0,0,0,.15-.76" transform="translate(-5 -4.89)"/><path class="cls-2" d="M222,249.33a3,3,0,0,0-1.34-.72l-.28-.1c-.62-.19-.92-.44-.92-.77a.52.52,0,0,1,.26-.45,1.21,1.21,0,0,1,.62-.14h1.33v-.73h-1.55a3,3,0,0,0-1.85.5,1.74,1.74,0,0,0-.62,1.44,1.45,1.45,0,0,0,.32,1,2.9,2.9,0,0,0,1.25.66l.45.14q1,.32,1.05.9a.73.73,0,0,1-.29.64,1.65,1.65,0,0,1-.89.18H218v.73h2a2.51,2.51,0,0,0,1.75-.58,2,2,0,0,0,.62-1.57,1.7,1.7,0,0,0-.33-1.12" transform="translate(-5 -4.89)"/><path class="cls-2" d="M207.28,200.93H154.47V98.21h52.81Zm-47.95-4.85h43.09v-93H159.33Z" transform="translate(-5 -4.89)"/><polygon class="cls-2" points="198.13 83.76 144.64 30.27 91.15 83.76 87.72 80.33 144.64 23.41 201.57 80.33 198.13 83.76"/><path class="cls-2" d="M145.63,139.28H92.82V98.21h52.81Zm-47.95-4.85h43.09V103.06H97.68Z" transform="translate(-5 -4.89)"/><path class="cls-2" d="M145.63,200.93H92.82v-52.8h52.81Zm-47.95-4.85h43.09V153H97.68Z" transform="translate(-5 -4.89)"/></svg>